# xmcd CD database file
#
# Track frame offsets:
#	150
#	22454
#	35773
#	52459
#	71896
#	97406
#	116321
#	133012
#	149222
#	170000
#	191652
#
# Disc length: 2874 seconds
#
# Revision: 0
# Processed by: cddbd v1.5.2PL0 Copyright (c) Steve Scherf et al.
# Submitted via: CDex 1.51
#
DISCID=c20b380b
DTITLE=A Pocketful of Blues - Sometimes life ain't easy
DYEAR=2015
DGENRE=Blues
TTITLE0=Sometimes life ain't easy
TTITLE1=Low budget thing
TTITLE2=Runaround
TTITLE3=Time-eaters
TTITLE4=Dreamland
TTITLE5=Mama, can't you hear that whistle blowin'
TTITLE6=Don't trust the good ones
TTITLE7=A bandy-legged yappin' dog
TTITLE8=Rock my bones
TTITLE9=Gospeltown
TTITLE10=Hi Lily hello
EXTD=YEAR: 2015
EXTT0=
EXTT1=
EXTT2=
EXTT3=
EXTT4=
EXTT5=
EXTT6=
EXTT7=
EXTT8=
EXTT9=
EXTT10=
PLAYORDER=
